<svg width="48" height="88" viewBox="0 0 48 88" fill="none" xmlns="http://www.w3.org/2000/svg">
<g filter="url(#filter0_d)">
<path fill-rule="evenodd" clip-rule="evenodd" d="M44 80V55H24C23.4477 55 23 54.5523 23 54C23 53.4477 23.4477 53 24 53H44V40H24C23.4477 40 23 39.5523 23 39C23 38.4477 23.4477 38 24 38H44V25H24C23.4477 25 23 24.5523 23 24C23 23.4477 23.4477 23 24 23H44V0C21.9086 0 4 17.9086 4 40C4 62.0914 21.9086 80 44 80Z" fill="#F11E3C"/>
</g>
<defs>
<filter id="filter0_d" x="0" y="0" width="48" height="88" filterUnits="userSpaceOnUse" color-interpolation-filters="sRGB">
<feFlood flood-opacity="0" result="BackgroundImageFix"/>
<feColorMatrix in="SourceAlpha" type="matrix" values="0 0 0 0 0 0 0 0 0 0 0 0 0 0 0 0 0 0 127 0"/>
<feOffset dy="4"/>
<feGaussianBlur stdDeviation="2"/>
<feColorMatrix type="matrix" values="0 0 0 0 0 0 0 0 0 0 0 0 0 0 0 0 0 0 0.25 0"/>
<feBlend mode="normal" in2="BackgroundImageFix" result="effect1_dropShadow"/>
<feBlend mode="normal" in="SourceGraphic" in2="effect1_dropShadow" result="shape"/>
</filter>
</defs>
</svg>
