<svg width="40" height="80" viewBox="0 0 40 80" fill="none" xmlns="http://www.w3.org/2000/svg">
<path fill-rule="evenodd" clip-rule="evenodd" d="M40 80V0C17.9086 0 0 17.9086 0 40C0 62.0914 17.9086 80 40 80ZM13.1432 51.0678C12.7984 51.4992 12.885 52.1066 13.3367 52.4245C13.7883 52.7423 14.434 52.6503 14.7788 52.2188L23.3372 41.5106L30.3087 51.5239C30.6243 51.9771 31.263 52.1126 31.7354 51.8264C32.2077 51.5402 32.3348 50.9408 32.0193 50.4875L24.637 39.8843L34.1331 28.0029C34.4779 27.5715 34.3913 26.9641 33.9396 26.6462C33.488 26.3283 32.8423 26.4204 32.4975 26.8518L23.4472 38.1755L14.8778 25.867C14.5622 25.4138 13.9235 25.2783 13.4511 25.5645C12.9788 25.8507 12.8516 26.4501 13.1672 26.9034L22.1474 39.8018L13.1432 51.0678Z" fill="#F11E3C"/>
</svg>
